<mxfile host="app.diagrams.net" modified="2023-08-21T12:52:01.472Z" agent="Mozilla/5.0 (Windows NT 10.0; Win64; x64) AppleWebKit/537.36 (KHTML, like Gecko) Chrome/115.0.0.0 Safari/537.36" version="21.6.8" etag="hUJh6Fa4Mo5WcZMHf04V" type="github">
  <diagram name="Trang-1" id="YpO2mTZmQnSKloH7g-2N">
    <mxGraphModel>
      <root>
        <mxCell id="0" />
        <mxCell id="1" parent="0" />
      </root>
    </mxGraphModel>
  </diagram>
</mxfile>
